<?xml version="1.0" standalone="no"?>
<!DOCTYPE svg PUBLIC "-//W3C//DTD SVG 20010904//EN"
 "http://www.w3.org/TR/2001/REC-SVG-20010904/DTD/svg10.dtd">
<svg version="1.0" xmlns="http://www.w3.org/2000/svg"
 width="64.000000pt" height="64.000000pt" viewBox="0 0 64.000000 64.000000"
 preserveAspectRatio="xMidYMid meet">
<g transform="translate(0.000000,64.000000) scale(0.100000,-0.100000)"
fill="#000000" stroke="none">
<path d="M0 320 l0 -320 320 0 320 0 0 320 0 320 -320 0 -320 0 0 -320z m240
290 c0 -5 -5 -10 -11 -10 -5 0 -7 5 -4 10 3 6 8 10 11 10 2 0 4 -4 4 -10z
m322 -53 c-39 -40 -39 -38 2 -79 40 -40 60 -104 52 -162 -4 -23 -8 -56 -10
-74 -2 -18 -12 -42 -22 -53 -13 -15 -14 -19 -3 -19 8 0 -15 -14 -49 -30 -39
-18 -80 -30 -105 -30 -34 0 -48 -7 -80 -38 -26 -24 -41 -33 -44 -24 -5 14 -58
39 -119 56 -68 19 -190 120 -163 136 10 7 15 3 19 -13 3 -12 11 -23 18 -23 7
-1 17 -2 23 -3 5 0 7 -6 3 -13 -4 -7 -3 -8 4 -4 7 4 12 1 12 -7 0 -19 19 -26
45 -17 17 6 14 10 -22 29 -121 61 -133 230 -22 310 24 18 34 31 27 34 -10 3
-9 9 3 22 18 18 66 4 54 -16 -4 -5 3 -9 15 -9 31 0 74 -25 104 -61 15 -17 28
-30 29 -28 1 3 22 26 47 53 25 27 39 45 32 41 -10 -5 -13 -2 -10 11 2 14 13
19 43 21 22 0 54 6 70 11 17 6 41 11 54 11 25 1 25 1 -7 -32z m-286 -2 c-3 -8
-1 -15 5 -15 6 0 7 -5 3 -11 -4 -8 -9 -7 -14 2 -8 12 -3 39 7 39 3 0 3 -7 -1
-15z m-249 -57 c-3 -8 -6 -5 -6 6 -1 11 2 17 5 13 3 -3 4 -12 1 -19z m123
-402 c0 -11 -19 -15 -25 -6 -3 5 1 10 9 10 9 0 16 -2 16 -4z m310 -1 c0 -3 -2
-5 -5 -5 -3 0 -5 2 -5 5 0 3 2 5 5 5 3 0 5 -2 5 -5z m-280 -10 c0 -3 -2 -5 -5
-5 -3 0 -5 2 -5 5 0 3 2 5 5 5 3 0 5 -2 5 -5z"/>
<path d="M175 450 c21 -9 17 -11 -25 -13 -37 -3 -76 -117 -39 -117 5 0 8 -4 4
-10 -8 -12 56 -82 92 -100 15 -8 34 -23 41 -32 7 -9 19 -15 27 -12 8 4 15 1
15 -6 0 -6 4 -8 10 -5 5 3 7 0 4 -8 -7 -20 15 -32 29 -18 9 9 8 11 -5 6 -10
-4 -18 -4 -18 -1 0 4 12 11 26 16 14 6 23 13 21 17 -3 5 -1 19 4 32 9 23 27
25 69 7 11 -4 32 9 63 39 45 43 47 47 47 102 0 32 -6 66 -13 75 -33 43 -138
29 -129 -17 5 -26 -22 -37 -31 -12 -2 6 -3 4 -2 -5 2 -10 -1 -21 -6 -24 -5 -3
-7 -10 -4 -15 4 -5 -1 -9 -10 -9 -8 0 -18 -7 -21 -15 -4 -8 -10 -12 -15 -9 -5
3 -6 11 -2 17 5 9 3 9 -8 0 -12 -10 -15 -7 -17 15 -1 15 -10 32 -20 39 -40 28
-62 49 -62 61 0 6 -10 12 -22 11 -22 0 -22 -1 -3 -9z m245 -35 c0 -3 -2 -5 -5
-5 -3 0 -5 2 -5 5 0 3 2 5 5 5 3 0 5 -2 5 -5z m-200 -20 c0 -3 -2 -5 -5 -5 -3
0 -5 2 -5 5 0 3 2 5 5 5 3 0 5 -2 5 -5z m120 -70 c0 -3 -2 -5 -5 -5 -3 0 -5 2
-5 5 0 3 2 5 5 5 3 0 5 -2 5 -5z"/>
<path d="M210 455 c0 -3 2 -5 5 -5 3 0 5 2 5 5 0 3 -2 5 -5 5 -3 0 -5 -2 -5
-5z"/>
<path d="M255 430 c10 -11 20 -20 23 -20 3 0 -3 9 -13 20 -10 11 -20 20 -23
20 -3 0 3 -9 13 -20z"/>
<path d="M340 385 c0 -3 2 -5 5 -5 3 0 5 2 5 5 0 3 -2 5 -5 5 -3 0 -5 -2 -5
-5z"/>
<path d="M300 375 c0 -3 2 -5 5 -5 3 0 5 2 5 5 0 3 -2 5 -5 5 -3 0 -5 -2 -5
-5z"/>
<path d="M290 355 c0 -3 2 -5 5 -5 3 0 5 2 5 5 0 3 -2 5 -5 5 -3 0 -5 -2 -5
-5z"/>
<path d="M580 225 c0 -3 2 -5 5 -5 3 0 5 2 5 5 0 3 -2 5 -5 5 -3 0 -5 -2 -5
-5z"/>
<path d="M280 135 c0 -3 2 -5 5 -5 3 0 5 2 5 5 0 3 -2 5 -5 5 -3 0 -5 -2 -5
-5z"/>
</g>
</svg>
